<svg width="464" height="331" viewBox="0 0 464 331" fill="none" xmlns="http://www.w3.org/2000/svg">
<mask id="path-1-inside-1_3_66" fill="white">
<path d="M329 165.5C329 198.233 319.352 230.231 301.277 257.447C283.201 284.663 257.51 305.876 227.451 318.402C197.393 330.928 164.318 334.206 132.408 327.82C100.498 321.434 71.1867 305.672 48.181 282.526C25.1753 259.381 9.50815 229.891 3.16088 197.787C-3.18639 165.684 0.0712625 132.407 12.5219 102.166C24.9725 71.9247 46.0569 46.0772 73.1088 27.8918C100.161 9.7064 131.965 -3.90335e-07 164.5 0L164.5 56.8493C143.141 56.8493 122.261 63.2215 104.502 75.1602C86.7421 87.0989 72.9002 104.068 64.7264 123.921C56.5526 143.774 54.4139 165.621 58.5809 186.697C62.7479 207.773 73.0333 227.133 88.1366 242.328C103.24 257.523 122.483 267.871 143.431 272.063C164.38 276.255 186.094 274.104 205.828 265.88C225.561 257.657 242.427 243.731 254.294 225.863C266.161 207.996 272.494 186.989 272.494 165.5H329Z"/>
</mask>
<path d="M329 165.5C329 198.233 319.352 230.231 301.277 257.447C283.201 284.663 257.51 305.876 227.451 318.402C197.393 330.928 164.318 334.206 132.408 327.82C100.498 321.434 71.1867 305.672 48.181 282.526C25.1753 259.381 9.50815 229.891 3.16088 197.787C-3.18639 165.684 0.0712625 132.407 12.5219 102.166C24.9725 71.9247 46.0569 46.0772 73.1088 27.8918C100.161 9.7064 131.965 -3.90335e-07 164.5 0L164.5 56.8493C143.141 56.8493 122.261 63.2215 104.502 75.1602C86.7421 87.0989 72.9002 104.068 64.7264 123.921C56.5526 143.774 54.4139 165.621 58.5809 186.697C62.7479 207.773 73.0333 227.133 88.1366 242.328C103.24 257.523 122.483 267.871 143.431 272.063C164.38 276.255 186.094 274.104 205.828 265.88C225.561 257.657 242.427 243.731 254.294 225.863C266.161 207.996 272.494 186.989 272.494 165.5H329Z" stroke="#5f052d" stroke-width="80" mask="url(#path-1-inside-1_3_66)"/>
<mask id="path-2-inside-2_3_66" fill="white">
<path d="M329 165.5C329 143.766 324.745 122.245 316.478 102.166C308.211 82.0865 296.094 63.8419 280.819 48.4738C265.544 33.1057 247.41 20.9151 227.451 12.5979C207.493 4.28078 186.103 -9.50013e-07 164.5 0L164.5 56.8548C178.681 56.8548 192.724 59.665 205.826 65.1249C218.927 70.5848 230.832 78.5876 240.86 88.6762C250.887 98.7649 258.842 110.742 264.269 123.923C269.696 137.105 272.489 151.233 272.489 165.5H329Z"/>
</mask>
<path d="M329 165.5C329 143.766 324.745 122.245 316.478 102.166C308.211 82.0865 296.094 63.8419 280.819 48.4738C265.544 33.1057 247.41 20.9151 227.451 12.5979C207.493 4.28078 186.103 -9.50013e-07 164.5 0L164.5 56.8548C178.681 56.8548 192.724 59.665 205.826 65.1249C218.927 70.5848 230.832 78.5876 240.86 88.6762C250.887 98.7649 258.842 110.742 264.269 123.923C269.696 137.105 272.489 151.233 272.489 165.5H329Z" stroke="#C7CACC" stroke-width="100" mask="url(#path-2-inside-2_3_66)"/>
<path d="M210.987 5.43923C216.612 4.94377 235.761 4.93962 287.881 5.0779C287.881 5.0779 367.5 4.99978 371.5 5.49978C375.5 5.99978 376.74 5.99979 380.5 6.99978C413.764 15.8465 437.623 38.9394 449.304 71.784C454.088 85.3082 454.644 103.51 450.861 118.967C448.08 130.355 440.516 144.693 432.395 153.641C430.282 155.979 428.613 158.215 428.611 158.522C428.611 158.929 431.616 161.98 435.287 165.437C451.752 180.69 462.209 201.943 463.767 223.297C466.882 264.988 438.513 305.867 396.794 319.798C378.105 326 378.771 326 287.881 326C250.543 326 223.115 325.775 211.351 325.454C216.673 323.892 221.931 322.057 227.101 319.945L228.512 319.361C255.442 308.068 278.865 289.757 296.448 266.373L327.485 266.006L370.206 265.497L377.771 262.141C385.892 258.481 390.119 254.311 394.458 245.668C396.349 242.007 396.794 238.957 396.794 230.924C396.905 221.467 396.572 220.246 393.234 213.942C388.451 204.994 379.995 197.875 370.539 194.927C364.421 192.995 361.083 192.791 341.059 192.791H327.836C329.31 183.81 330.061 174.684 330.061 165.5C330.061 154.477 328.977 143.509 326.847 132.754L338.389 132.593C363.308 132.287 366.312 131.474 375.657 123.136C394.347 106.561 390.008 79.0035 366.868 67.9197L361.306 65.1746L323.259 64.6658L296.205 64.3045C291.805 58.4822 287.022 52.9462 281.88 47.74C266.605 32.2756 248.47 20.0077 228.512 11.6385C222.779 9.23447 216.928 7.16715 210.987 5.43923Z" fill="#5f052d"/>
</svg>
