<svg width="525" height="366" viewBox="0 0 525 366" fill="none" xmlns="http://www.w3.org/2000/svg">
<mask id="path-1-inside-1_3_66" fill="white">
<path d="M360 183C360 219.194 349.443 254.575 329.665 284.669C309.886 314.764 281.774 338.219 248.883 352.07C215.992 365.921 179.8 369.545 144.884 362.484C109.967 355.423 77.8943 337.994 52.7208 312.401C27.5474 286.808 10.404 254.2 3.45871 218.702C-3.48663 183.203 0.0779715 146.408 13.7017 112.969C27.3255 79.5301 50.3966 50.9494 79.9974 30.8411C109.598 10.7328 144.399 -4.31609e-07 180 0L180 62.8605C156.628 62.8605 133.781 69.9066 114.348 83.1077C94.9154 96.3088 79.7692 115.072 70.8252 137.025C61.8812 158.977 59.5411 183.133 64.1007 206.438C68.6603 229.743 79.9149 251.15 96.4413 267.951C112.968 284.753 134.024 296.195 156.946 300.831C179.869 305.467 203.629 303.087 225.222 293.994C246.815 284.901 265.27 269.503 278.255 249.746C291.24 229.989 298.17 206.761 298.17 183H360Z"/>
</mask>
<path d="M360 183C360 219.194 349.443 254.575 329.665 284.669C309.886 314.764 281.774 338.219 248.883 352.07C215.992 365.921 179.8 369.545 144.884 362.484C109.967 355.423 77.8943 337.994 52.7208 312.401C27.5474 286.808 10.404 254.2 3.45871 218.702C-3.48663 183.203 0.0779715 146.408 13.7017 112.969C27.3255 79.5301 50.3966 50.9494 79.9974 30.8411C109.598 10.7328 144.399 -4.31609e-07 180 0L180 62.8605C156.628 62.8605 133.781 69.9066 114.348 83.1077C94.9154 96.3088 79.7692 115.072 70.8252 137.025C61.8812 158.977 59.5411 183.133 64.1007 206.438C68.6603 229.743 79.9149 251.15 96.4413 267.951C112.968 284.753 134.024 296.195 156.946 300.831C179.869 305.467 203.629 303.087 225.222 293.994C246.815 284.901 265.27 269.503 278.255 249.746C291.24 229.989 298.17 206.761 298.17 183H360Z" stroke="#B8A37C" stroke-width="80" mask="url(#path-1-inside-1_3_66)"/>
<mask id="path-2-inside-2_3_66" fill="white">
<path d="M360 183C360 207.032 355.344 230.828 346.298 253.031C337.253 275.234 323.994 295.408 307.279 312.401C290.565 329.394 270.722 342.874 248.883 352.07C227.044 361.267 203.638 366 180 366L180 303.134C195.518 303.134 210.883 300.026 225.219 293.989C239.556 287.952 252.582 279.103 263.555 267.947C274.527 256.792 283.231 243.548 289.169 228.973C295.108 214.398 298.164 198.776 298.164 183H360Z"/>
</mask>
<path d="M360 183C360 207.032 355.344 230.828 346.298 253.031C337.253 275.234 323.994 295.408 307.279 312.401C290.565 329.394 270.722 342.874 248.883 352.07C227.044 361.267 203.638 366 180 366L180 303.134C195.518 303.134 210.883 300.026 225.219 293.989C239.556 287.952 252.582 279.103 263.555 267.947C274.527 256.792 283.231 243.548 289.169 228.973C295.108 214.398 298.164 198.776 298.164 183H360Z" stroke="white" stroke-width="100" mask="url(#path-2-inside-2_3_66)"/>
<mask id="path-3-inside-3_3_66" fill="white">
<path d="M360 183C360 158.968 355.344 135.172 346.298 112.969C337.253 90.7663 323.994 70.5926 307.279 53.5995C290.565 36.6063 270.722 23.1267 248.883 13.93C227.044 4.73343 203.638 -1.05047e-06 180 0L180 62.8666C195.518 62.8666 210.883 65.9739 225.219 72.0112C239.556 78.0485 252.582 86.8974 263.555 98.0529C274.527 109.208 283.231 122.452 289.169 137.027C295.108 151.602 298.164 167.224 298.164 183H360Z"/>
</mask>
<path d="M360 183C360 158.968 355.344 135.172 346.298 112.969C337.253 90.7663 323.994 70.5926 307.279 53.5995C290.565 36.6063 270.722 23.1267 248.883 13.93C227.044 4.73343 203.638 -1.05047e-06 180 0L180 62.8666C195.518 62.8666 210.883 65.9739 225.219 72.0112C239.556 78.0485 252.582 86.8974 263.555 98.0529C274.527 109.208 283.231 122.452 289.169 137.027C295.108 151.602 298.164 167.224 298.164 183H360Z" stroke="#B8A37C" stroke-width="100" mask="url(#path-3-inside-3_3_66)"/>
<path d="M254.323 1.70815C249.947 -0.0262225 255.624 -0.142243 337.119 0.0890064C337.161 0.0889626 421.77 0.00108526 426.023 0.569475C430.275 1.13799 431.594 1.13762 435.591 2.27455C470.956 12.3339 496.324 38.5921 508.743 75.9386C513.829 91.3167 514.421 112.014 510.399 129.589C507.442 142.539 499.399 158.842 490.765 169.017C488.518 171.676 486.744 174.219 486.743 174.567C486.743 175.029 489.937 178.498 493.84 182.429C511.345 199.773 522.464 223.939 524.12 248.22C527.432 295.626 497.27 342.107 452.915 357.947C433.044 365 433.754 365 337.119 365C283.427 365 249.01 364.538 249 363.96C249 363.382 250.183 362.457 251.721 361.994C257.635 360.26 277.506 349.969 287.441 343.494C299.742 335.632 320.56 315.861 328.366 304.876L333.69 297.36L379.227 296.782L424.647 296.204L432.69 292.388C441.324 288.225 445.819 283.485 450.432 273.657C452.442 269.495 452.915 266.026 452.915 256.892C453.033 246.139 452.679 244.751 449.131 237.582C444.045 227.407 435.055 219.313 425.001 215.96C418.496 213.763 414.947 213.532 393.657 213.532H369.647L370.475 203.936C372.012 188.442 371.302 158.263 369.409 151.442L367.636 145.43L390.818 145.082C417.313 144.735 420.507 143.81 430.442 134.329C450.313 115.482 445.7 84.1481 421.098 71.5451L415.184 68.423L374.732 67.8449L334.28 67.2667L328.366 58.9425C320.796 48.4207 300.334 28.5332 288.388 20.2081C279.399 13.8488 263.904 5.40819 254.323 1.70815Z" fill="#B8A37C"/>
</svg>
